<svg width="114" height="40" viewBox="0 0 114 40" fill="none" xmlns="http://www.w3.org/2000/svg">
<path d="M7.16797 20.3333C7.16797 14.895 9.18797 6 15.9863 6C22.1246 6 24.4546 13.225 24.4546 19.5567C24.4546 25.3067 22.513 33.93 15.5596 33.93C9.53797 33.93 7.16797 27.4817 7.16797 20.3333ZM18.5496 19.945C18.5496 13.9233 18.278 7.90333 15.8696 7.90333C13.3063 7.90333 13.228 15.1283 13.228 19.79C13.228 26.2383 13.4996 32.0267 15.8696 32.0267C18.2396 32.0267 18.5496 25.5 18.5496 19.945Z" fill="#341B11"/>
<path d="M27.0922 32.8416L29.1122 31.3649V19.6732L25.4605 8.44658L23.8672 7.12658V6.62158H32.8405V7.12658L31.1305 8.25325L33.8889 16.8766H34.0439L36.8789 8.09825L35.0539 7.12658V6.62158H40.9972V7.12658L38.8222 8.21492L34.8205 20.5682V31.3666L36.9955 32.8432V33.3482H27.0905V32.8432L27.0922 32.8416Z" fill="#341B11"/>
<path d="M42.6304 24.6448H43.2521L46.8254 31.6365C47.3304 31.8298 47.9137 31.9081 48.4571 31.9081C50.2054 31.9081 51.5254 30.5481 51.5254 28.4115C51.5254 23.0115 41.9688 20.6031 41.9688 13.4565C41.9704 8.56313 44.9604 6.07812 48.9237 6.07812C50.7487 6.07812 52.7304 6.62146 54.2454 7.55479L53.8954 14.4298L53.3904 14.4681L49.6621 8.21479C49.1954 8.09813 48.8071 8.05979 48.5354 8.05979C47.1371 8.05979 46.1271 9.18646 46.1271 10.7015C46.1271 15.6348 55.8771 17.9648 55.8771 25.9281C55.8771 29.1131 54.3237 33.9698 48.2254 33.9698C46.9054 33.9698 44.5737 33.8531 42.0871 31.7948L42.6304 24.6465V24.6448Z" fill="#341B11"/>
<path d="M59.8777 32.8416L61.8977 31.3649V8.56325H60.7327L57.3143 14.4682H56.8477L56.9643 6.62158H72.6193L72.736 14.4682H72.2693L68.851 8.56325H67.491V31.3649L69.666 32.8416V33.3466H59.8777V32.8416Z" fill="#341B11"/>
<path d="M73.125 32.8418L75.3783 31.3268V8.56345L73.3583 7.08678V6.62012H87.42L87.5367 14.4668H87.07L83.6517 8.56178H81.0883V18.8168L85.9433 17.7684V21.1484L81.0883 20.2934V31.3634H84.585L88.5083 25.2651H89.0133L88.0417 33.3251H73.125V32.8384V32.8418Z" fill="#341B11"/>
<path d="M103.157 22.2432L99.6139 21.5199C102.547 21.1382 106.244 18.6999 106.244 13.8232C106.244 8.94658 102.931 6.62158 97.7089 6.62158H95.7305L89.8672 6.66825V7.13492L91.8839 8.60992V31.3883L89.8672 32.8632V33.3283H96.9639V21.5566H97.9389L99.0188 25.7116C100.286 30.5916 103.321 34.8266 107.534 37.5966L108.772 38.4099L103.159 22.2432H103.157ZM97.6638 19.5316L96.9622 19.6366V8.70492H97.6638C99.7422 8.70492 101.156 10.6949 101.156 13.8316C101.156 16.7032 99.9638 18.8232 97.6638 19.5316Z" fill="#341B11"/>
</svg>
